PathFileType	4	(X/Y/Z)	C:/Users/opensim2020/Desktop/walking_exp_matlab/subject03_walking10_straight_04.trc																																																																																																																																					
DataRate	CameraRate	NumFrames	NumMarkers	Units	OrigDataRate	OrigDataStartFrame	OrigNumFrames																																																																																																																																	
100	100	8	45	mm	100	3982	317																																																																																																																																	
Frame#	Time	LFHD			RFHD			LBHD			RBHD			C7			T10			CLAV			STRN			RBAK			LSHO			LUPA			LELB			LFRM			LWRA			LWRB			LFIN			RSHO			RUPA			RELB			RFRM			RWRA			RWRB			RFIN			LASI			RASI			LPSI			RPSI			LTHI			LKNE			LTIB			LANK			LHEE			LTOE			RTHI			RKNE			RTIB			RANK			RHEE			RTOE			*39			*40			*41			*42			*43			*44		
		X1	Y1	Z1	X2	Y2	Z2	X3	Y3	Z3	X4	Y4	Z4	X5	Y5	Z5	X6	Y6	Z6	X7	Y7	Z7	X8	Y8	Z8	X9	Y9	Z9	X10	Y10	Z10	X11	Y11	Z11	X12	Y12	Z12	X13	Y13	Z13	X14	Y14	Z14	X15	Y15	Z15	X16	Y16	Z16	X17	Y17	Z17	X18	Y18	Z18	X19	Y19	Z19	X20	Y20	Z20	X21	Y21	Z21	X22	Y22	Z22	X23	Y23	Z23	X24	Y24	Z24	X25	Y25	Z25	X26	Y26	Z26	X27	Y27	Z27	X28	Y28	Z28	X29	Y29	Z29	X30	Y30	Z30	X31	Y31	Z31	X32	Y32	Z32	X33	Y33	Z33	X34	Y34	Z34	X35	Y35	Z35	X36	Y36	Z36	X37	Y37	Z37	X38	Y38	Z38	X39	Y39	Z39	X40	Y40	Z40	X41	Y41	Z41	X42	Y42	Z42	X43	Y43	Z43	X44	Y44	Z44	X45	Y45	Z45
																																																																																																																																								
159	1.58	109.17264	1618.83301	926.89313	107.16049	1623.91333	1059.97961	-14.59622	1564.50439	930.83289	-11.76752	1569.52332	1061.36462	-34.74899	1412.09009	991.73096	-72.58469	1100.13977	998.9328	86.09769	1333.49475	989.38928	125.68613	1168.15808	986.64661	-87.73683	1241.93311	1093.62891	37.64034	1368.6969	833.42603	9.19894	1168.23181	773.23737	1.34523	1044.73572	768.03217	9.98658	914.44299	769.86389	15.16867	794.9649	802.76105	-11.90067	802.58173	753.40405	-14.66076	716.76471	768.29895	49.71906	1359.75244	1150.21655	64.38624	1137.68689	1220.66174	91.04772	1027.73596	1230.62695	127.98542	896.0835	1225.69495	169.49847	808.52478	1183.29724	143.49602	797.28534	1229.35876	178.53711	732.56702	1215.04578	95.47876	939.0896	879.11517	95.04916	929.24274	1116.61877	-66.51048	961.58057	928.58954	-63.80792	965.86218	1078.60144	74.52045	638.38873	837.49066	118.33106	466.01868	878.6333	104.49248	272.31818	876.40503	135.53792	63.60461	913.56555	100.68491	28.63236	952.72491	290.14825	32.65889	935.3526	3.29857	636.987	1156.76257	-13.84896	457.19577	1129.61877	-145.47928	310.79355	1134.43286	-277.07455	137.67462	1091.30847	-330.62091	134.0717	1040.55212	-179.18968	30.17815	1063.50732	22.56854	1675.02148	976.12408	NaN	NaN	NaN	NaN	NaN	NaN	NaN	NaN	NaN	NaN	NaN	NaN	NaN	NaN	NaN
160	1.59	117.07219	1619.67798	925.76758	114.64262	1624.87939	1058.82727	-6.96024	1565.75671	929.38312	-4.45096	1570.94336	1060.29614	-27.26977	1412.9303	990.04547	-64.56659	1100.98132	997.45142	93.85039	1334.74512	988.36908	133.83214	1169.5188	985.84528	-79.96597	1242.90222	1092.27368	46.14635	1369.94788	832.3349	18.80128	1169.56738	771.68549	10.88078	1045.92395	766.38422	20.85251	915.77374	768.57648	26.53326	796.54846	801.16943	-0.26278	803.79456	751.93903	-3.76455	717.85846	767.237	56.7677	1361.33411	1148.93152	69.98128	1139.08264	1219.34558	95.41782	1028.75952	1229.19092	131.01064	896.84088	1224.72949	171.98904	808.69177	1182.68921	145.44821	797.79181	1228.53674	179.54982	732.38831	1214.37598	103.82068	940.22339	877.54681	102.98626	930.40326	1115.19446	-58.37226	962.86401	927.39655	-55.70855	966.9621	1077.29529	79.34692	638.92426	836.92944	121.50851	465.98508	877.64545	106.06084	272.51401	876.12396	135.84729	63.67607	913.72119	100.67689	28.62618	952.76788	290.34262	32.41072	935.39471	14.06291	636.95825	1156.41431	-0.2152	456.7739	1130.3252	-134.22107	313.20584	1134.9939	-269.90979	143.14581	1091.4834	-322.78445	141.85599	1040.28528	-178.05228	30.31776	1063.28259	28.41107	1675.0481	972.50226	NaN	NaN	NaN	NaN	NaN	NaN	NaN	NaN	NaN	NaN	NaN	NaN	NaN	NaN	NaN
161	1.6	124.89794	1620.37854	924.65057	122.05906	1625.62964	1057.6991	0.75923	1566.82117	927.90765	2.81983	1572.04016	1058.81995	-19.97783	1413.51013	988.7149	-56.61229	1101.66223	995.80951	101.44789	1335.75989	987.39575	141.81992	1170.67944	985.04663	-72.28004	1243.61292	1090.94727	54.47124	1370.95386	831.26691	28.20259	1170.66003	770.0697	21.50419	1046.96924	764.93872	31.82857	916.90759	767.19342	38.24305	797.76923	799.82379	11.75357	804.76093	750.37878	7.81129	718.73505	765.94159	63.74523	1362.58154	1147.64783	75.53413	1140.203	1218.12427	99.75209	1029.71985	1228.17725	133.97125	897.31024	1223.84729	174.49519	808.69049	1182.2406	147.37929	798.10541	1227.83105	180.61804	732.08295	1213.88281	111.48669	940.86414	876.45361	110.50297	931.26251	1113.776	-50.22356	963.91656	926.09027	-47.87693	967.81744	1075.89526	84.38987	639.42566	836.19293	124.75751	465.78769	876.9339	107.87169	272.71167	875.90363	135.60748	63.9462	913.3858	100.78236	28.62493	952.93542	290.60007	32.18036	935.53046	24.97921	636.73102	1156.15869	13.94865	456.23569	1131.22131	-122.94948	315.19095	1135.33752	-261.86063	148.42952	1091.72571	-313.99371	149.51387	1040.00806	-176.64998	30.47286	1062.9447	37.84531	1677.40381	973.71552	NaN	NaN	NaN	NaN	NaN	NaN	NaN	NaN	NaN	NaN	NaN	NaN	NaN	NaN	NaN
162	1.61	132.66913	1620.74622	923.59528	129.42731	1626.18921	1056.59851	8.42057	1567.66028	926.49426	10.03688	1572.88818	1057.104	-12.68587	1413.9939	987.16467	-48.67961	1102.11108	994.06146	108.93179	1336.53748	986.43384	149.73955	1171.58337	984.2702	-64.80536	1244.06799	1089.53259	62.76875	1371.68091	830.19806	37.60349	1171.55334	768.44281	31.76165	1047.72888	763.17261	43.0496	917.76196	765.9292	49.75933	798.3858	798.95062	24.0292	805.453	748.73938	20.00243	719.32751	764.53979	70.60838	1363.59375	1146.43506	81.08466	1141.08105	1216.98376	104.18806	1030.35205	1227.09949	137.0748	897.60748	1223.12024	177.13356	808.48645	1181.85303	149.51393	798.24713	1227.28564	181.81773	731.62653	1213.46716	119.2654	941.22272	875.21112	117.65491	931.85968	1112.49182	-42.16448	964.67218	924.55853	-40.38134	968.35382	1074.36768	89.55482	639.84265	835.06927	128.18369	465.72031	876.20343	109.81597	272.82806	875.60138	136.12054	63.8806	913.82526	100.8609	28.62623	953.12793	290.80948	31.87332	935.66968	35.84725	636.36279	1156.17456	28.4601	455.50378	1131.97644	-110.72095	317.04276	1135.5885	-252.76387	153.38733	1092.06799	-304.24829	157.1347	1039.92041	-175.04208	30.58938	1062.58716	45.91776	1677.96899	972.02893	NaN	NaN	NaN	NaN	NaN	NaN	NaN	NaN	NaN	NaN	NaN	NaN	NaN	NaN	NaN
163	1.62	140.39143	1620.96912	922.59448	136.76921	1626.55249	1055.5658	15.9655	1568.2074	925.13757	17.2502	1573.60217	1055.80176	-5.3061	1414.20715	985.40192	-40.84562	1102.28528	992.27649	116.29448	1337.06213	985.46326	157.63226	1172.19897	983.53259	-57.43382	1244.23059	1088.01672	70.87585	1372.10925	829.13959	47.08493	1172.08118	766.72321	41.89444	1048.27722	761.3808	54.31483	918.3241	764.37195	61.68876	799.02765	797.55011	36.50453	805.86078	747.04968	32.85739	719.71289	762.96869	77.34507	1364.30334	1145.26099	86.67598	1141.66541	1215.92334	108.70858	1030.73926	1226.17712	140.27867	897.62854	1222.49817	179.87578	808.03839	1181.70642	151.67502	798.065	1226.83325	183.21094	731.01306	1213.23999	127.04608	941.33685	874.08112	124.51463	932.039	1111.34277	-34.37719	965.20831	922.99329	-33.08762	968.57056	1072.86951	94.84158	640.17529	833.71649	131.68532	465.64407	875.48059	111.92986	272.9639	875.31384	136.48265	63.92907	914.01068	100.92193	28.62327	953.27972	291.10934	31.6608	935.85864	47.47726	635.38037	1155.7594	42.99241	454.69504	1132.56299	-97.98951	318.83447	1135.80713	-242.90242	157.97517	1092.61169	-293.72168	164.76964	1040.16504	-173.80394	30.54003	1061.83167	53.79354	1678.62634	970.60229	NaN	NaN	NaN	NaN	NaN	NaN	NaN	NaN	NaN	NaN	NaN	NaN	NaN	NaN	NaN
164	1.63	147.99019	1621.00012	921.60626	144.0096	1626.69446	1054.58459	23.49004	1568.5437	923.85663	24.31057	1574.09375	1054.71094	1.76783	1414.2981	984.11749	-33.13149	1102.22241	990.60638	123.56686	1337.35059	984.5575	165.31889	1172.58386	982.80414	-50.26257	1244.11389	1086.38806	78.83669	1372.3219	828.15961	56.50184	1172.26709	765.0824	51.96553	1048.43738	759.37708	65.87865	918.67871	762.76654	74.22901	799.71686	795.604	49.31261	805.98944	745.26172	46.2972	719.7832	761.27094	83.93555	1364.63757	1144.10559	92.28519	1141.95337	1214.93958	113.33635	1030.82739	1225.31287	143.68167	897.37671	1222	182.56615	807.28967	1181.51807	154.01402	797.62689	1226.43909	184.80981	730.21356	1213.08838	134.62898	941.37622	873.04742	131.73479	932.13538	1110.349	-26.81038	965.66925	921.57385	-25.99806	968.40173	1071.38623	100.20797	640.49487	832.37494	135.36943	465.64932	874.69806	114.17227	273.06808	874.73846	136.99426	63.59859	914.55353	101.06101	28.59593	953.45691	291.39441	31.34179	936.05383	58.58441	634.55463	1155.59436	57.68917	453.85428	1133.01208	-84.73612	320.33588	1136.27112	-232.08871	162.01291	1093.26563	-282.4892	172.48572	1040.9469	-172.17265	30.9248	1061.46619	61.65044	1678.60022	969.01215	NaN	NaN	NaN	NaN	NaN	NaN	NaN	NaN	NaN	NaN	NaN	NaN	NaN	NaN	NaN
165	1.64	155.55817	1620.89148	920.71124	151.19272	1626.69617	1053.63977	30.95223	1568.66187	922.5838	31.39294	1574.32666	1053.46155	8.8062	1414.23938	982.45734	-25.48878	1102.0116	989.11926	130.68358	1337.43762	983.71173	172.94633	1172.78638	982.11395	-43.3304	1243.76282	1084.66931	86.64576	1372.14819	827.13147	65.89142	1172.19019	763.49127	62.57122	1048.28674	757.69635	77.50686	918.74768	761.07715	86.86131	799.9408	794.03406	62.45866	805.83594	743.44696	60.25364	719.65302	759.48175	90.43868	1364.7168	1143.11133	97.90309	1141.95557	1213.99988	118.15627	1030.58923	1224.40332	147.19437	896.91937	1221.47803	185.4696	806.49225	1181.39014	156.52171	797.22021	1226.19641	186.70064	729.32947	1213.0592	142.06404	941.32416	872.13715	139.34868	932.38727	1109.48181	-19.45588	966.05756	920.28619	-19.10686	967.93549	1070.0083	105.65797	640.77893	831.13177	139.15628	465.61871	873.85071	116.4129	273.14929	874.08905	137.30209	63.57874	914.65527	101.09841	28.80233	953.39679	291.66208	31.18094	936.18817	69.51098	633.61469	1155.37427	72.34274	453.07291	1133.41882	-71.08965	321.53238	1136.65784	-220.93265	165.69606	1094.26123	-270.51657	180.172	1042.12146	-170.07654	32.01031	1061.19421	69.10319	1678.88965	967.96417	NaN	NaN	NaN	NaN	NaN	NaN	NaN	NaN	NaN	NaN	NaN	NaN	NaN	NaN	NaN
166	1.65	163.09694	1620.66931	919.87354	158.33307	1626.60242	1052.78784	38.31023	1568.67175	921.44354	38.43365	1574.42053	1052.25684	15.72597	1414.02576	981.29944	-18.08614	1101.69006	987.85101	137.74144	1337.46106	982.85461	180.4035	1172.8219	981.45142	-36.64597	1243.22253	1082.84949	94.27627	1371.76709	826.14215	75.35732	1171.81372	761.91321	73.08609	1047.97266	755.78345	89.30962	918.55634	759.39313	99.90473	800.05176	792.32971	75.71648	805.52228	741.60992	74.88577	719.38538	757.5293	96.71986	1364.67297	1142.18872	103.40366	1141.77173	1213.12524	122.98149	1030.28345	1223.83008	150.8876	896.30969	1221.04199	188.33434	805.31232	1181.06763	159.31474	796.57416	1226.03101	188.91739	728.32581	1213.12634	149.43791	941.41541	871.2309	146.13582	931.92389	1108.69812	-12.39691	966.4588	919.17017	-12.37154	967.16071	1068.83911	111.33248	641.0918	830.00861	143.08121	465.66461	873.04553	118.71577	273.21979	873.43219	137.20731	63.79427	914.48126	100.81229	28.94863	953.63165	291.86633	30.97014	936.24561	80.27905	632.64606	1155.09973	86.79764	452.4119	1133.55127	-56.95526	322.40076	1137.08118	-209.60684	169.53792	1095.27197	-258.18805	187.625	1043.46606	-166.29132	34.06578	1061.04834	76.11197	1679.38062	967.17194	NaN	NaN	NaN	NaN	NaN	NaN	NaN	NaN	NaN	NaN	NaN	NaN	NaN	NaN	NaN
